<svg width="3000" height="1000" viewBox="0 0 3000 1000" fill="none" xmlns="http://www.w3.org/2000/svg">
<g clip-path="url(#clip0_3_3070)">
<rect width="3000" height="1000" fill="white"/>
<path d="M0 0H3000V1000H0V0Z" fill="url(#paint0_linear_3_3070)"/>
<path d="M0 0H3000V1000H0V0Z" fill="url(#paint1_radial_3_3070)"/>
<path d="M0 0H3000V1000H0V0Z" fill="url(#paint2_radial_3_3070)"/>
<path d="M1521.09 355.269L1634.82 421.03L1636.65 422.109L1732.97 477.968V366.314L1617.48 299.41L1521.09 355.269Z" fill="white"/>
<path d="M1501.13 228L1385.57 294.904V406.431L1499.3 340.733L1501.13 339.591L1597.45 283.795L1501.13 228Z" fill="white"/>
<path d="M1636.68 694.225L1733 638.43V504.686L1636.68 448.764V694.225Z" fill="white"/>
<path d="M1362.32 550.644L1266 494.848V361.104L1362.32 305.182V550.644Z" fill="white"/>
<path d="M1499.67 658.684L1497.84 659.827L1401.52 715.622L1497.84 771.418L1613.39 704.514V592.987L1504.16 656.145L1499.67 658.684Z" fill="white"/>
<path d="M1364.16 577.959L1362.32 576.88L1266 521.021V632.676L1381.62 699.579L1477.88 643.72L1364.16 577.959Z" fill="white"/>
</g>
<defs>
<linearGradient id="paint0_linear_3_3070" x1="1500" y1="0" x2="1500" y2="1000" gradientUnits="userSpaceOnUse">
<stop stop-color="#A7BABA"/>
<stop offset="1" stop-color="#79889E"/>
</linearGradient>
<radialGradient id="paint1_radial_3_3070" cx="0" cy="0" r="1" gradientTransform="matrix(2242.83 -676.073 2224.8 969.593 -87.2577 665.663)" gradientUnits="userSpaceOnUse">
<stop stop-color="#96859D"/>
<stop offset="1" stop-color="white" stop-opacity="0"/>
</radialGradient>
<radialGradient id="paint2_radial_3_3070" cx="0" cy="0" r="1" gradientTransform="matrix(-1932.13 -715.361 2146.08 -761.472 3000 1000)" gradientUnits="userSpaceOnUse">
<stop stop-color="#5B7782"/>
<stop offset="1" stop-color="#4F7CA3" stop-opacity="0"/>
</radialGradient>
<clipPath id="clip0_3_3070">
<rect width="3000" height="1000" fill="white"/>
</clipPath>
</defs>
</svg>
